<?xml version="1.0" encoding="utf-8"?>
<!-- Generator: Adobe Illustrator 16.0.0, SVG Export Plug-In . SVG Version: 6.00 Build 0)  -->
<!DOCTYPE svg PUBLIC "-//W3C//DTD SVG 1.1//EN" "http://www.w3.org/Graphics/SVG/1.1/DTD/svg11.dtd">
<svg version="1.1" xmlns="http://www.w3.org/2000/svg" xmlns:xlink="http://www.w3.org/1999/xlink" x="0px" y="0px"
	 width="2285.543px" height="2273.545px" viewBox="0 0 2285.543 2273.545" enable-background="new 0 0 2285.543 2273.545"
	 xml:space="preserve">
<g id="Backhole" display="none">
	<circle display="inline" cx="1155.771" cy="1125.979" r="1107.949"/>
</g>
<g id="Trophy">
	<path stroke="#FFFFFF" stroke-width="32" stroke-miterlimit="10" d="M1648.021,418.209
		c178.477-134.966,273.026-44.42,274.192-43.397c160.342,140.571-182.018,490.594-307.189,589.028
		c-5.016,3.946,92.893,46.899,120.742,26.383c14.66-10.798,6.635-35.402,10.959-47.197c1.987-5.427,11.68-19.422,18.279-23.278
		c12.211-7.135,27.242-4.977,30.547-4.624c23.337,2.492,30.238,23.951,26.893,47.08c-13.141,90.931-212.59,133.342-235.929,84.097
		l-77.062-184.322c-18.324,103.097,508.189-276.837,373.787-433.135c-68.584-79.759-223.424,77.048-239.152,85.919
		c-29.49,16.629-3.912,27.271-10.627,37.644c-6.714,10.375-24.592-112.38-10.01-120.769
		C1638.029,423.248,1648.021,418.209,1648.021,418.209z"/>
	<path stroke="#FFFFFF" stroke-width="32" stroke-miterlimit="10" d="M604.181,607.876
		c-216.613-56.106-269.304,67.474-269.989,68.865c-94.092,191.354,356.406,383.125,509.779,425.968
		c6.146,1.718-67.773,78.965-101.365,70.713c-17.685-4.344-19.717-30.143-28.238-39.372c-3.918-4.253-18.238-13.453-25.814-14.48
		c-14.016-1.899-27.064,5.865-29.982,7.458c-20.593,11.26-18.725,33.723-6.758,53.795c48.809,81.884,246.381,64.284,250.135-12.919
		l0.398-199.779c56.498,88.161-575.524-60.535-511.426-256.451c32.712-99.979,236.262-16.716,253.813-12.478
		c23.471,5.672,14.082,23.682,24.264,30.682c36.059,24.797,21.177-100.119-35.771-114.931
		C617.218,610.782,604.181,607.876,604.181,607.876z"/>
	<path stroke="#FFFFFF" stroke-width="32" stroke-miterlimit="10" d="M1126.969,1128.721c0,0,173.088,791.119-303.577,650.414
		l-9.578-3.607l-45.613,62.706c0,0,335.901,242.601,832.06,178.032l14.764-1.807c0,0-12.816-54.588-16.768-75.629
		c-0.323-1.734-25.852-2.383-37.35-4.51c-16.374-3.025-42.126-9.881-43.686-10.271c-269.905-67.453-158.388-322.359-154.805-528.401
		c2.657-152.792-46.354-254.507-49.609-304.271c0,0-157.652,15.255-171.746,26.298"/>
	<path fill="#FEDF00" stroke="#010101" stroke-width="32" stroke-miterlimit="10" d="M644.953,584.735"/>
	<path stroke="#FFFFFF" stroke-width="32" stroke-miterlimit="10" d="M644.082,581.961c0,0,360.549-348.215,986.336-190.106
		c0,0,22.775,47.031,31.583,124.536c0.134,1.159,0.632,5.824,0.751,6.998c34.569,345.01-42.841,758.539-403.909,808.695
		c-189.07,26.259-318.493-80.212-426.937-233.838c-106.29-150.58-157.664-343.674-168.294-393.277
		C654.429,662.114,641.682,584.056,644.082,581.961z"/>
	<path fill="#FEDF00" stroke="#010101" stroke-width="32" stroke-miterlimit="10" d="M1761.895,490.844"/>
	<path fill="#FEDF00" stroke="#010101" stroke-width="32" stroke-miterlimit="10" d="M644.953,584.735"/>
	<path fill="#FEDF00" stroke="#010101" stroke-width="32" stroke-miterlimit="10" d="M1761.895,490.844"/>
	<g id="Layer_2">
	</g>
</g>
<g id="Shine">
</g>
</svg>
